HIERARCHY
ROOT root
{
	OFFSET	0	13.1	24.9
	CHANNELS 6  Xposition Yposition Zposition Xrotation Yrotation Zrotation
	JOINT spine_1
	{
		OFFSET	0	9.99999	0
		CHANNELS 3  Xrotation Yrotation Zrotation
		JOINT spine_2
		{
			OFFSET	0	112	-10
			CHANNELS 3  Xrotation Yrotation Zrotation
			JOINT spine_3
			{
				OFFSET	0	206.5	19.3
				CHANNELS 3  Xrotation Yrotation Zrotation
				JOINT spine_4
				{
					OFFSET	0	110.4	14.6
					CHANNELS 3  Xrotation Yrotation Zrotation
					JOINT neck_1
					{
						OFFSET	0	71.8	-50.3
						CHANNELS 3  Xrotation Yrotation Zrotation
						JOINT neck_2
						{
							OFFSET	0	86.2	-25.8
							CHANNELS 3  Xrotation Yrotation Zrotation
							JOINT head_ee
							{
								OFFSET	0	179.8	-8.7
								CHANNELS 3  Xrotation Yrotation Zrotation
								End Site
								{
									OFFSET	1	0	0
								}
							}
						}
					}
					JOINT left_clavicle
					{
						OFFSET	-43.2	22.4	-70.8
						CHANNELS 3  Xrotation Yrotation Zrotation
						JOINT left_shoulder
						{
							OFFSET	-93.9	-5.79999	48.7
							CHANNELS 3  Xrotation Yrotation Zrotation
							JOINT left_elbow
							{
								OFFSET	-291.4	-30.8	15.2
								CHANNELS 3  Xrotation Yrotation Zrotation
								JOINT left_lowarm_twist
								{
									OFFSET	-110.7	-3.89999	13.6
									CHANNELS 3  Xrotation Yrotation Zrotation
									JOINT left_hand
									{
										OFFSET	-110.7	-3.89999	13.6
										CHANNELS 3  Xrotation Yrotation Zrotation
										JOINT left_ee
										{
											OFFSET	-80.8	-5.10001	12.1
											CHANNELS 3  Xrotation Yrotation Zrotation
											End Site
											{
												OFFSET	1	0	0
											}
										}
									}
								}
							}
						}
					}
					JOINT right_clavicle
					{
						OFFSET	43.2	22.4	-70.8
						CHANNELS 3  Xrotation Yrotation Zrotation
						JOINT right_shoulder
						{
							OFFSET	93.9	-5.79999	48.7
							CHANNELS 3  Xrotation Yrotation Zrotation
							JOINT right_elbow
							{
								OFFSET	291.4	-30.8	15.2
								CHANNELS 3  Xrotation Yrotation Zrotation
								JOINT right_lowarm_twist
								{
									OFFSET	110.7	-3.89999	13.6
									CHANNELS 3  Xrotation Yrotation Zrotation
									JOINT right_hand
									{
										OFFSET	110.7	-3.89999	13.6
										CHANNELS 3  Xrotation Yrotation Zrotation
										JOINT right_ee
										{
											OFFSET	80.8	-5.10001	12.1
											CHANNELS 3  Xrotation Yrotation Zrotation
											End Site
											{
												OFFSET	1	0	0
											}
										}
									}
								}
							}
						}
					}
				}
			}
		}
	}
	JOINT left_hip
	{
		OFFSET	-82.8	-127.5	0.300001
		CHANNELS 3  Xrotation Yrotation Zrotation
		JOINT left_knee
		{
			OFFSET	-28.2	-396.7	2.2
			CHANNELS 3  Xrotation Yrotation Zrotation
			JOINT left_ankle
			{
				OFFSET	-11.7	-411.3	35.4
				CHANNELS 3  Xrotation Yrotation Zrotation
				JOINT left_toes
				{
					OFFSET	0	-60	-88.6
					CHANNELS 3  Xrotation Yrotation Zrotation
					JOINT left_foot_ee
					{
						OFFSET	-22.5	-16.5	-42.2
						CHANNELS 3  Xrotation Yrotation Zrotation
						End Site
						{
							OFFSET	1	0	0
						}
					}
				}
			}
		}
	}
	JOINT right_hip
	{
		OFFSET	82.8	-127.5	0.300001
		CHANNELS 3  Xrotation Yrotation Zrotation
		JOINT right_knee
		{
			OFFSET	28.2	-396.7	2.2
			CHANNELS 3  Xrotation Yrotation Zrotation
			JOINT right_ankle
			{
				OFFSET	11.7	-411.3	35.4
				CHANNELS 3  Xrotation Yrotation Zrotation
				JOINT right_toes
				{
					OFFSET	0	-60	-88.6
					CHANNELS 3  Xrotation Yrotation Zrotation
					JOINT right_foot_ee
					{
						OFFSET	22.5	-16.5	-42.2
						CHANNELS 3  Xrotation Yrotation Zrotation
						End Site
						{
							OFFSET	1	0	0
						}
					}
				}
			}
		}
	}
}
MOTION
Frames: 9
Frame Time: 0.02
1041.4 574.639 -1682.42 -9.56001317833 7.4039951064 -4.22620214789 6.86827 0.182463 1.07045 6.8689 0.113982 1.07989 6.87016 0.0144643 1.08579 6.86857 0.185753 1.06988 -15.4251 7.33426 -4.60328 -15.6286 16.7323 -1.82057 -0.0 0.0 -0.0 0.51528 22.2228 3.30207 -34.1734 -31.9083 62.1568 0.557565 -15.4404 0.0755864 82.2361 -4.09874 -8.73076 -0.307952 -8.55168 -5.71967 -0.0 0.0 -0.0 13.5224 26.4416 -26.8342 -17.7629 8.43198 -61.024 1.49981 36.6085 -0.496163 18.7768 -0.275115 2.37208 0.106064 12.5062 4.60538 0.0 0.0 0.0 30.0892 39.2714 1.7496 0.21977 -0.00911179 -0.0324945 30.6457 26.6508 -4.22475 -18.4183 0.0 0.0 -0.0 0.0 -0.0 4.83719 -1.10866 9.74532 -15.52 -0.322086 -2.35267 40.1729 -24.963 5.18329 16.7808 -0.0 -0.0 0.0 0.0 0.0 
1041.4 574.639 -1682.42 -9.57767570115 8.17013556836 -4.09584660703 6.86827 0.182463 1.07045 6.8689 0.113982 1.07989 6.87016 0.0144643 1.08579 6.86857 0.185753 1.06988 -15.4251 7.33426 -4.60328 -15.6286 16.7323 -1.82057 -0.0 0.0 -0.0 0.51528 22.2228 3.30207 -34.1734 -31.9083 62.1568 0.557565 -15.4404 0.0755864 82.2361 -4.09874 -8.73076 -0.307952 -8.55168 -5.71967 -0.0 0.0 -0.0 13.5224 26.4416 -26.8342 -17.7629 8.43198 -61.024 1.49981 36.6085 -0.496163 18.7768 -0.275115 2.37208 0.106064 12.5062 4.60538 0.0 0.0 0.0 30.0892 39.2714 1.7496 0.21977 -0.00911179 -0.0324945 30.6457 26.6508 -4.22475 -18.4183 0.0 0.0 -0.0 0.0 -0.0 4.83719 -1.10866 9.74532 -15.52 -0.322086 -2.35267 40.1729 -24.963 5.18329 16.7808 -0.0 -0.0 0.0 0.0 0.0 
1041.4 574.639 -1682.42 -9.60174051839 9.10762141622 -3.93564023325 6.86827 0.182463 1.07045 6.8689 0.113982 1.07989 6.87016 0.0144643 1.08579 6.86857 0.185753 1.06988 -15.4251 7.33426 -4.60328 -15.6286 16.7323 -1.82057 -0.0 0.0 -0.0 0.51528 22.2228 3.30207 -34.1734 -31.9083 62.1568 0.557565 -15.4404 0.0755864 82.2361 -4.09874 -8.73076 -0.307952 -8.55168 -5.71967 -0.0 0.0 -0.0 13.5224 26.4416 -26.8342 -17.7629 8.43198 -61.024 1.49981 36.6085 -0.496163 18.7768 -0.275115 2.37208 0.106064 12.5062 4.60538 0.0 0.0 0.0 30.0892 39.2714 1.7496 0.21977 -0.00911179 -0.0324945 30.6457 26.6508 -4.22475 -18.4183 0.0 0.0 -0.0 0.0 -0.0 4.83719 -1.10866 9.74532 -15.52 -0.322086 -2.35267 40.1729 -24.963 5.18329 16.7808 -0.0 -0.0 0.0 0.0 0.0 
1041.4 574.639 -1682.42 -9.62503548108 9.92790760958 -3.79476405453 6.86827 0.182463 1.07045 6.8689 0.113982 1.07989 6.87016 0.0144643 1.08579 6.86857 0.185753 1.06988 -15.4251 7.33426 -4.60328 -15.6286 16.7323 -1.82057 -0.0 0.0 -0.0 0.51528 22.2228 3.30207 -34.1734 -31.9083 62.1568 0.557565 -15.4404 0.0755864 82.2361 -4.09874 -8.73076 -0.307952 -8.55168 -5.71967 -0.0 0.0 -0.0 13.5224 26.4416 -26.8342 -17.7629 8.43198 -61.024 1.49981 36.6085 -0.496163 18.7768 -0.275115 2.37208 0.106064 12.5062 4.60538 0.0 0.0 0.0 30.0892 39.2714 1.7496 0.21977 -0.00911179 -0.0324945 30.6457 26.6508 -4.22475 -18.4183 0.0 0.0 -0.0 0.0 -0.0 4.83719 -1.10866 9.74532 -15.52 -0.322086 -2.35267 40.1729 -24.963 5.18329 16.7808 -0.0 -0.0 0.0 0.0 0.0 
1041.4 574.639 -1682.42 -9.65197633102 10.7954935109 -3.6449819017 6.86827 0.182463 1.07045 6.8689 0.113982 1.07989 6.87016 0.0144643 1.08579 6.86857 0.185753 1.06988 -15.4251 7.33426 -4.60328 -15.6286 16.7323 -1.82057 -0.0 0.0 -0.0 0.51528 22.2228 3.30207 -34.1734 -31.9083 62.1568 0.557565 -15.4404 0.0755864 82.2361 -4.09874 -8.73076 -0.307952 -8.55168 -5.71967 -0.0 0.0 -0.0 13.5224 26.4416 -26.8342 -17.7629 8.43198 -61.024 1.49981 36.6085 -0.496163 18.7768 -0.275115 2.37208 0.106064 12.5062 4.60538 0.0 0.0 0.0 30.0892 39.2714 1.7496 0.21977 -0.00911179 -0.0324945 30.6457 26.6508 -4.22475 -18.4183 0.0 0.0 -0.0 0.0 -0.0 4.83719 -1.10866 9.74532 -15.52 -0.322086 -2.35267 40.1729 -24.963 5.18329 16.7808 -0.0 -0.0 0.0 0.0 0.0 
1041.4 574.639 -1682.42 -9.6689658597 11.3065252081 -3.55634926185 6.86827 0.182463 1.07045 6.8689 0.113982 1.07989 6.87016 0.0144643 1.08579 6.86857 0.185753 1.06988 -15.4251 7.33426 -4.60328 -15.6286 16.7323 -1.82057 -0.0 0.0 -0.0 0.51528 22.2228 3.30207 -34.1734 -31.9083 62.1568 0.557565 -15.4404 0.0755864 82.2361 -4.09874 -8.73076 -0.307952 -8.55168 -5.71967 -0.0 0.0 -0.0 13.5224 26.4416 -26.8342 -17.7629 8.43198 -61.024 1.49981 36.6085 -0.496163 18.7768 -0.275115 2.37208 0.106064 12.5062 4.60538 0.0 0.0 0.0 30.0892 39.2714 1.7496 0.21977 -0.00911179 -0.0324945 30.6457 26.6508 -4.22475 -18.4183 0.0 0.0 -0.0 0.0 -0.0 4.83719 -1.10866 9.74532 -15.52 -0.322086 -2.35267 40.1729 -24.963 5.18329 16.7808 -0.0 -0.0 0.0 0.0 0.0 
1041.4 574.639 -1682.42 -9.70032732032 12.1901383465 -3.40232927101 6.86827 0.182463 1.07045 6.8689 0.113982 1.07989 6.87016 0.0144643 1.08579 6.86857 0.185753 1.06988 -15.4251 7.33426 -4.60328 -15.6286 16.7323 -1.82057 -0.0 0.0 -0.0 0.51528 22.2228 3.30207 -34.1734 -31.9083 62.1568 0.557565 -15.4404 0.0755864 82.2361 -4.09874 -8.73076 -0.307952 -8.55168 -5.71967 -0.0 0.0 -0.0 13.5224 26.4416 -26.8342 -17.7629 8.43198 -61.024 1.49981 36.6085 -0.496163 18.7768 -0.275115 2.37208 0.106064 12.5062 4.60538 0.0 0.0 0.0 30.0892 39.2714 1.7496 0.21977 -0.00911179 -0.0324945 30.6457 26.6508 -4.22475 -18.4183 0.0 0.0 -0.0 0.0 -0.0 4.83719 -1.10866 9.74532 -15.52 -0.322086 -2.35267 40.1729 -24.963 5.18329 16.7808 -0.0 -0.0 0.0 0.0 0.0 
1041.4 574.639 -1682.42 -9.74626819257 13.3719892764 -3.19467583249 6.86827 0.182463 1.07045 6.8689 0.113982 1.07989 6.87016 0.0144643 1.08579 6.86857 0.185753 1.06988 -15.4251 7.33426 -4.60328 -15.6286 16.7323 -1.82057 -0.0 0.0 -0.0 0.51528 22.2228 3.30207 -34.1734 -31.9083 62.1568 0.557565 -15.4404 0.0755864 82.2361 -4.09874 -8.73076 -0.307952 -8.55168 -5.71967 -0.0 0.0 -0.0 13.5224 26.4416 -26.8342 -17.7629 8.43198 -61.024 1.49981 36.6085 -0.496163 18.7768 -0.275115 2.37208 0.106064 12.5062 4.60538 0.0 0.0 0.0 30.0892 39.2714 1.7496 0.21977 -0.00911179 -0.0324945 30.6457 26.6508 -4.22475 -18.4183 0.0 0.0 -0.0 0.0 -0.0 4.83719 -1.10866 9.74532 -15.52 -0.322086 -2.35267 40.1729 -24.963 5.18329 16.7808 -0.0 -0.0 0.0 0.0 0.0 
1032.74573058 575.231 -1693.06221527 -10.2320318145 11.9038385173 -3.23916176796 6.80787 0.28154 1.09756 6.80852 0.211133 1.11325 6.81171 0.107013 1.12803 6.81004 0.283811 1.09698 -14.4004 7.96614 -4.81394 -14.6041 18.1088 -1.96113 -0.0 0.0 -0.0 1.36237 22.1681 4.48892 -33.9733 -22.7044 60.324 0.919838 -24.4965 0.199691 79.6139 -3.7941 -8.58786 0.202268 -10.8416 -3.24374 -0.0 0.0 -0.0 13.3965 26.2709 -26.5629 -17.7471 10.1786 -62.8071 1.44287 35.5534 -0.462631 18.466 -0.276929 2.33242 -1.82082 -0.368726 12.0832 0.0 0.0 0.0 29.56 38.7437 1.28774 -0.00762974 0.000314172 0.0011287 33.7637 27.3308 -4.59788 -15.8327 0.0 0.0 -0.0 0.0 -0.0 4.96322 4.23399 9.96587 -17.6841 -0.316016 -2.68463 37.7878 -25.5295 4.96687 20.7595 -0.0 -0.0 0.0 0.0 0.0 
